<svg width="12" height="22" viewBox="0 0 12 22" fill="none" xmlns="http://www.w3.org/2000/svg">
<path opacity="0.4" d="M6 22C7.5913 22 9.11742 21.3696 10.2426 20.2474C11.3679 19.1253 12 17.6033 12 16.0164V4.1629C11.9191 3.03231 11.4116 1.97429 10.5798 1.20187C9.74804 0.429446 8.65368 0 7.51711 0C6.38054 0 5.28618 0.429446 4.45439 1.20187C3.6226 1.97429 3.11515 3.03231 3.03422 4.1629V14.037C3.03422 14.8214 3.34669 15.5737 3.90288 16.1284C4.45907 16.6831 5.21343 16.9947 6 16.9947C6.78657 16.9947 7.54093 16.6831 8.09712 16.1284C8.65331 15.5737 8.96578 14.8214 8.96578 14.037V6.75656C8.96578 6.5152 8.86964 6.28372 8.6985 6.11305C8.52736 5.94238 8.29525 5.8465 8.05323 5.8465C7.81121 5.8465 7.5791 5.94238 7.40796 6.11305C7.23683 6.28372 7.14068 6.5152 7.14068 6.75656V14.037C7.14068 14.3387 7.0205 14.6281 6.80658 14.8414C6.59267 15.0547 6.30253 15.1746 6 15.1746C5.69747 15.1746 5.40733 15.0547 5.19341 14.8414C4.97949 14.6281 4.85931 14.3387 4.85931 14.037V4.1629C4.92075 3.50231 5.22732 2.8884 5.71896 2.44148C6.2106 1.99455 6.85187 1.74681 7.51711 1.74681C8.18235 1.74681 8.82362 1.99455 9.31526 2.44148C9.80689 2.8884 10.1135 3.50231 10.1749 4.1629V16.0164C10.1749 17.1206 9.73505 18.1796 8.9521 18.9604C8.16916 19.7412 7.10725 20.1799 6 20.1799C4.89275 20.1799 3.83084 19.7412 3.0479 18.9604C2.26495 18.1796 1.82509 17.1206 1.82509 16.0164V4.48142C1.82509 4.24006 1.72895 4.00858 1.55782 3.83791C1.38668 3.66724 1.15457 3.57136 0.912547 3.57136C0.670525 3.57136 0.438415 3.66724 0.267279 3.83791C0.0961429 4.00858 0 4.24006 0 4.48142V16.0164C0 17.6033 0.632141 19.1253 1.75736 20.2474C2.31451 20.8031 2.97595 21.2438 3.7039 21.5445C4.43185 21.8452 5.21207 22 6 22Z" fill="black"/>
</svg>
