<svg width="19" height="17" viewBox="0 0 19 17" fill="none" xmlns="http://www.w3.org/2000/svg">
<path d="M17.8212 0H1.15878C0.519453 0 0 0.548004 0 1.22247V11.4659C0 12.1404 0.519453 12.6884 1.15878 12.6884H3.15668V15.9132C3.15668 16.8827 4.2755 17.3675 4.91483 16.672L8.69085 12.6673H17.8412C18.4805 12.6673 19 12.1193 19 11.4449V1.22247C18.98 0.548004 18.4606 0 17.8212 0ZM4.59516 7.84068C3.796 7.84068 3.15668 7.16621 3.15668 6.32313C3.15668 5.48004 3.796 4.80558 4.59516 4.80558C5.39432 4.80558 6.03365 5.48004 6.03365 6.32313C6.03365 7.16621 5.37434 7.84068 4.59516 7.84068ZM9.49001 7.84068C8.69085 7.84068 8.05153 7.16621 8.05153 6.32313C8.05153 5.48004 8.69085 4.80558 9.49001 4.80558C10.2892 4.80558 10.9285 5.48004 10.9285 6.32313C10.9285 7.16621 10.2892 7.84068 9.49001 7.84068ZM14.3849 7.84068C13.5857 7.84068 12.9464 7.16621 12.9464 6.32313C12.9464 5.48004 13.5857 4.80558 14.3849 4.80558C15.184 4.80558 15.8233 5.48004 15.8233 6.32313C15.8233 7.16621 15.184 7.84068 14.3849 7.84068Z" fill="#61B248"/>
</svg>
