<svg width="22" height="22" viewBox="0 0 22 22" fill="none" xmlns="http://www.w3.org/2000/svg">
<path fill-rule="evenodd" clip-rule="evenodd" d="M11 0C4.92487 0 0 4.92487 0 11C0 17.0751 4.92487 22 11 22C17.0751 22 22 17.0751 22 11C22 4.92487 17.0751 0 11 0ZM10.6936 9.32154L10.6706 8.94092C10.6013 7.9544 11.2092 7.05333 12.1709 6.70378C12.5249 6.57949 13.125 6.56395 13.5174 6.6727C13.6713 6.71931 13.9637 6.87467 14.1714 7.01449L14.5485 7.27083L14.964 7.13878C15.1948 7.06886 15.5026 6.95235 15.6411 6.87467C15.7719 6.80476 15.8873 6.76592 15.8873 6.78922C15.8873 6.92128 15.6026 7.37181 15.3641 7.62038C15.0409 7.96994 15.1332 8.00101 15.7872 7.76797C16.1797 7.63592 16.1873 7.63592 16.1104 7.78351C16.0642 7.86119 15.8257 8.13306 15.5718 8.38163C15.1409 8.80886 15.1178 8.85547 15.1178 9.21279C15.1178 9.76431 14.8562 10.914 14.5946 11.5431C14.1099 12.7239 13.0712 13.9434 12.0324 14.5571C10.5705 15.4193 8.62387 15.6368 6.98499 15.1319C6.4387 14.961 5.5 14.526 5.5 14.4483C5.5 14.425 5.78469 14.394 6.13093 14.3862C6.85419 14.3706 7.57745 14.1687 8.193 13.8114L8.60849 13.5628L8.13144 13.3997C7.45435 13.1666 6.8465 12.6306 6.69261 12.1257C6.64645 11.9626 6.66184 11.9548 7.09271 11.9548L7.53898 11.9471L7.16196 11.7684C6.71569 11.5431 6.3079 11.1625 6.10785 10.7741C5.96166 10.4945 5.77699 9.78761 5.83085 9.73324C5.84624 9.70994 6.00782 9.75654 6.19248 9.81869C6.72339 10.0129 6.79264 9.96628 6.48487 9.64003C5.9078 9.04967 5.73083 8.1719 6.00782 7.34074L6.13862 6.96788L6.64645 7.47279C7.68517 8.49038 8.90856 9.09627 10.3089 9.27494L10.6936 9.32154Z" fill="#4BA82E"/>
</svg>
