<svg width="18" height="17" viewBox="0 0 18 17" fill="none" xmlns="http://www.w3.org/2000/svg">
<path fill-rule="evenodd" clip-rule="evenodd" d="M6.03917 7.55597C7.87818 4.68681 8.53033 3.86913 8.4216 2.20852C8.3129 0.547904 8.62413 0.0909447 9.36487 0.00908357C10.1056 -0.0727776 11.497 0.35559 11.7412 3.07369C11.8469 4.24977 11.0541 6.56568 11.0541 6.56568C11.0541 6.56568 16.1088 6.56916 16.5997 6.56916C17.3849 6.56916 18 6.92515 18 8.05982C18 9.12312 16.8908 9.44279 16.8908 9.44279C16.8908 9.44279 17.6007 9.7369 17.6007 10.6309C17.6007 11.5363 16.8619 11.9444 16.3754 11.9444C16.6783 12.104 17.101 12.4103 17.008 13.1848C16.915 13.9589 16.3939 14.2405 15.8795 14.4078C16.212 14.6253 16.4542 15.2272 16.2691 15.69C16.0199 16.3132 15.3625 17 13.8867 17C12.1005 17 7.18827 17 6.99218 17C6.46972 17 6.08144 16.7471 6 16.4356C6 15.7968 6 7.90182 6 7.90182C6 7.90182 5.99998 7.62779 6.03917 7.55597Z" fill="#D4D4D4"/>
<path fill-rule="evenodd" clip-rule="evenodd" d="M0 8H5V17H1.88925L0 8Z" fill="#D4D4D4"/>
</svg>
