<svg width="21" height="20" viewBox="0 0 21 20" fill="none" xmlns="http://www.w3.org/2000/svg">
<path fill-rule="evenodd" clip-rule="evenodd" d="M14 8C14 11.3137 11.3137 14 8 14C4.68629 14 2 11.3137 2 8C2 4.68629 4.68629 2 8 2C11.3137 2 14 4.68629 14 8ZM13.1196 14.1476C11.7323 15.3042 9.94741 16 8 16C3.58172 16 0 12.4183 0 8C0 3.58172 3.58172 0 8 0C12.4183 0 16 3.58172 16 8C16 9.79332 15.4099 11.4488 14.4134 12.7829L14.4984 12.6979L20.3862 18.5858L18.972 20L13.1196 14.1476Z" fill="#C1C1C1"/>
</svg>
