<svg width="17" height="15" viewBox="0 0 17 15" fill="none" xmlns="http://www.w3.org/2000/svg">
<path d="M15.9453 0H1.0368C0.464774 0 0 0.483533 0 1.07865V10.117C0 10.7121 0.464774 11.1957 1.0368 11.1957H2.8244V14.0411C2.8244 14.8965 3.82545 15.3243 4.39748 14.7106L7.77603 11.1771H15.9632C16.5352 11.1771 17 10.6935 17 10.0984V1.07865C16.9821 0.483533 16.5173 0 15.9453 0ZM4.11146 6.91825C3.39642 6.91825 2.8244 6.32313 2.8244 5.57923C2.8244 4.83533 3.39642 4.24021 4.11146 4.24021C4.8265 4.24021 5.39853 4.83533 5.39853 5.57923C5.39853 6.32313 4.80862 6.91825 4.11146 6.91825ZM8.49106 6.91825C7.77603 6.91825 7.204 6.32313 7.204 5.57923C7.204 4.83533 7.77603 4.24021 8.49106 4.24021C9.2061 4.24021 9.77813 4.83533 9.77813 5.57923C9.77813 6.32313 9.2061 6.91825 8.49106 6.91825ZM12.8707 6.91825C12.1556 6.91825 11.5836 6.32313 11.5836 5.57923C11.5836 4.83533 12.1556 4.24021 12.8707 4.24021C13.5857 4.24021 14.1577 4.83533 14.1577 5.57923C14.1577 6.32313 13.5857 6.91825 12.8707 6.91825Z" fill="#B0B0B0"/>
</svg>
