<svg width="14" height="15" viewBox="0 0 14 15" fill="none" xmlns="http://www.w3.org/2000/svg">
<path d="M11.041 7.93333H4.46667C3.98804 7.93333 3.6 7.54529 3.6 7.06666C3.6 6.58803 3.98804 6.19999 4.46667 6.19999H11.041L9.92045 5.0795C9.58199 4.74109 9.58199 4.19232 9.92045 3.85385C10.2588 3.51539 10.8076 3.51539 11.1461 3.85385L13.7459 6.45369C13.7661 6.47374 13.785 6.49471 13.803 6.51667C13.8074 6.52204 13.8112 6.52782 13.8155 6.53331C13.8287 6.55012 13.8417 6.56699 13.8536 6.58479C13.8571 6.58999 13.8599 6.59548 13.8633 6.60074C13.8752 6.61934 13.8869 6.63812 13.8974 6.65771C13.8994 6.66158 13.9011 6.66568 13.9031 6.66955C13.914 6.69075 13.9245 6.71225 13.9337 6.73444C13.9349 6.73715 13.9357 6.74004 13.9368 6.74281C13.9462 6.76616 13.9549 6.78979 13.9623 6.81411C13.9633 6.81717 13.9638 6.82035 13.9647 6.82347C13.9717 6.84733 13.9781 6.87143 13.983 6.8961C13.9845 6.90344 13.9851 6.91101 13.9864 6.9184C13.99 6.93885 13.9936 6.95931 13.9956 6.98017C13.9986 7.00877 14 7.03765 14 7.06666C14 7.09566 13.9986 7.12455 13.9956 7.15321C13.9936 7.17436 13.9899 7.19498 13.9864 7.21561C13.9851 7.22277 13.9845 7.23011 13.983 7.23722C13.978 7.26212 13.9717 7.28645 13.9646 7.31054C13.9638 7.31337 13.9633 7.31638 13.9624 7.31921C13.9549 7.34365 13.9462 7.36751 13.9367 7.39108C13.9356 7.39363 13.9349 7.39634 13.9338 7.39888C13.9245 7.42124 13.914 7.44285 13.9029 7.46417C13.901 7.46793 13.8994 7.47186 13.8974 7.47561C13.8868 7.49531 13.8751 7.51427 13.863 7.53304C13.8598 7.53813 13.857 7.5435 13.8536 7.54847C13.8417 7.56632 13.8286 7.58331 13.8154 7.60018C13.8112 7.60561 13.8074 7.61133 13.8031 7.61665C13.785 7.63855 13.7661 7.65958 13.746 7.67963L11.1462 10.2795C10.9769 10.4488 10.7551 10.5333 10.5333 10.5333C10.3115 10.5333 10.0897 10.4488 9.92051 10.2795C9.58204 9.941 9.58204 9.39228 9.92051 9.05382L11.041 7.93333Z" fill="#4BA82E"/>
<path fill-rule="evenodd" clip-rule="evenodd" d="M0 1C0 0.447715 0.447715 0 1 0H7.06667C7.61895 0 8.06667 0.447715 8.06667 1C8.06667 1.55228 7.61895 2 7.06667 2H2V12.1333H7.06667C7.61895 12.1333 8.06667 12.581 8.06667 13.1333C8.06667 13.6856 7.61895 14.1333 7.06667 14.1333H1C0.447715 14.1333 0 13.6856 0 13.1333V1Z" fill="#4BA82E"/>
</svg>
