<?xml version="1.0" standalone="no"?>
<!DOCTYPE svg PUBLIC "-//W3C//DTD SVG 20010904//EN"
 "http://www.w3.org/TR/2001/REC-SVG-20010904/DTD/svg10.dtd">
<svg version="1.0" xmlns="http://www.w3.org/2000/svg"
 width="700.000000pt" height="700.000000pt" viewBox="0 0 700.000000 700.000000"
 preserveAspectRatio="xMidYMid meet">
<metadata>
Created by potrace 1.11, written by Peter Selinger 2001-2013
</metadata>
<g transform="translate(0.000000,700.000000) scale(0.100000,-0.100000)"
fill="#000000" stroke="none">
<path d="M3298 6995 c-2 -1 -41 -5 -88 -9 -100 -7 -225 -22 -295 -36 -27 -5
-61 -12 -75 -14 -431 -79 -908 -273 -1275 -519 -69 -46 -297 -217 -305 -228
-3 -3 -25 -23 -50 -44 -85 -70 -216 -201 -361 -361 -209 -230 -452 -625 -585
-952 -62 -151 -146 -411 -169 -520 -2 -9 -8 -37 -14 -62 -11 -49 -13 -63 -35
-195 -34 -204 -40 -302 -40 -570 0 -251 13 -405 48 -590 2 -11 6 -36 10 -55
49 -272 154 -589 282 -855 31 -66 77 -153 101 -193 23 -41 43 -76 43 -78 0 -2
33 -55 73 -117 480 -736 1212 -1264 2054 -1482 72 -19 142 -36 155 -39 13 -2
60 -11 106 -20 46 -9 111 -19 145 -22 34 -3 65 -8 68 -9 15 -10 227 -20 409
-20 188 0 341 8 430 21 144 21 295 48 345 61 33 8 67 16 75 18 109 22 388 117
549 187 121 53 308 148 353 179 14 11 29 19 33 19 24 0 383 257 495 355 118
103 293 278 365 365 21 25 41 47 44 50 4 3 45 55 91 115 332 436 547 915 654
1456 14 70 28 155 32 190 3 35 8 67 10 70 9 17 19 214 18 399 0 188 -6 331
-19 420 -3 19 -7 56 -10 81 -3 25 -7 54 -9 65 -2 10 -11 60 -21 109 -98 525
-337 1052 -670 1480 -43 55 -81 102 -84 105 -3 3 -35 38 -70 78 -479 546
-1164 944 -1888 1096 -98 21 -243 43 -393 61 -54 7 -526 16 -532 10z"/>
</g>
</svg>
