<svg width="758" height="528" viewBox="0 0 758 528" fill="none" xmlns="http://www.w3.org/2000/svg">
<path d="M378.974 0C169.683 0 0 169.676 0 378.966C0 588.313 169.683 758 378.974 758C588.315 758 758 588.313 758 378.966C758 169.676 588.315 0 378.974 0ZM378.974 689.735C207.364 689.735 68.2111 550.625 68.2111 378.966C68.2111 207.361 207.364 68.2326 378.974 68.2326C550.607 68.2326 689.765 207.361 689.765 378.966C689.765 550.625 550.607 689.735 378.974 689.735ZM625.086 526.368C604.338 498.825 571.349 480.989 534.174 480.989C531.16 480.989 528.154 481.117 525.168 481.359L523.27 481.587C519.342 481.587 516.09 484.602 515.729 488.454L515.413 492.918C515.413 499.208 510.338 504.31 504.043 504.31C497.74 504.31 492.669 499.208 492.669 492.918C492.669 490.75 494.774 485.864 494.774 485.864C514.109 443.747 524.874 396.957 524.874 347.603C524.874 257.434 488.906 175.718 430.541 115.941L423.829 109.246C410.141 95.7325 391.343 87.3696 370.581 87.3696L363.285 87.821C335.833 89.1813 309.92 93.8363 284.967 102.292L283.054 103.293C278.187 105.807 274.824 110.892 274.824 116.752C274.824 120.433 276.141 123.763 278.311 126.399L281.019 129.076C305.482 147.182 328.118 167.61 348.664 190.015L350.666 192.202C352.808 194.566 353.594 196.372 353.594 199.243C353.594 204.445 349.347 208.7 344.137 208.7C341.525 208.7 339.142 207.655 337.444 205.938L334.41 202.497C311.816 177.925 286.558 155.836 259.08 136.691L250.556 131.631C246.704 129.846 242.395 128.867 237.87 128.867C233.319 128.867 228.998 129.868 225.113 131.674L219.903 134.071C194.849 150.319 172.425 170.298 153.486 193.206L150.343 199.047C149.544 200.876 149.144 202.878 149.144 204.978C149.144 210.224 151.788 214.838 155.869 217.558L158.777 219.269C187.003 227.57 213.526 239.88 237.65 255.549L240.264 256.961C242.601 258.696 244.094 261.449 244.094 264.583C244.094 269.805 239.861 274.06 234.635 274.06C234.635 274.06 232.165 274.105 230.248 273.08C229.088 272.482 227.129 271.317 227.129 271.317C202.902 255.627 176.164 243.537 147.645 235.821L139.012 234.524C129.871 234.524 122.008 239.902 118.39 247.659L116.314 250.891C105.973 272.014 98.1378 294.551 93.1645 318.157L92.808 322.43C92.7401 323.074 92.6966 323.727 92.6966 324.347C92.6966 332.716 99.4981 339.496 107.848 339.496L112.35 339.224C114.355 339.16 116.358 339.139 118.368 339.139C204.491 339.139 275.382 404.431 284.177 488.236L284.841 493.36C284.904 493.895 284.925 494.426 284.925 494.94C284.925 503.311 278.143 510.088 269.788 510.088L263.898 509.62C256.337 508.519 250.535 505.853 242.734 500.033L239.907 498.355C229.956 491.281 218.802 485.733 206.813 482.099C206.813 482.099 194.832 480.989 187.478 481.413H116.518C112.339 481.413 108.936 484.819 108.936 488.985C108.936 491.303 109.978 493.381 111.613 494.742L112.056 495.149C138.59 512.341 157.501 540.328 162.587 572.906V572.725C162.587 576.56 165.421 579.777 169.08 580.334C169.08 580.334 180.097 580.334 184.348 580.334C200.055 580.334 214.886 577.167 228.302 571.48L249.174 561.675C261.178 557.361 274.147 555.002 287.666 555.002L504.043 555.024C510.338 555.024 515.413 560.125 515.413 566.376L515.707 571.386C515.798 574.642 517.875 577.363 520.793 578.347L523.656 578.891C527.101 579.215 530.631 579.359 534.174 579.359C571.634 579.359 604.867 561.268 625.58 533.322C625.58 533.322 626.512 531.983 627.596 529.938C626.675 528.37 625.086 526.368 625.086 526.368ZM423.883 480.925C400.865 480.925 382.203 462.29 382.203 439.265C382.203 416.247 400.865 397.586 423.883 397.586C446.932 397.586 465.587 416.247 465.587 439.265C465.587 462.29 446.932 480.925 423.883 480.925Z" fill="#E4E4E4"/>
</svg>
