<?xml version="1.0" encoding="utf-8"?><svg xmlns="http://www.w3.org/2000/svg" xmlns:xlink="http://www.w3.org/1999/xlink"><symbol viewBox="0 0 35 35" id="circle-logo" xmlns="http://www.w3.org/2000/svg"><mask id="aa" maskUnits="userSpaceOnUse" x="0" y="0" width="35" height="35"><circle cx="17.5" cy="17.5" r="17.5"/></mask><g mask="url(#aa)"><circle cx="17.5" cy="17.5" r="18.5"/><path d="M17.5 7C11.7 7 7 11.7 7 17.5 7 23.298 11.701 28 17.5 28S28 23.299 28 17.5C28 11.7 23.299 7 17.5 7zm0 19.109a8.61 8.61 0 1 1 0-17.219 8.61 8.61 0 1 1 0 17.219zm6.818-4.526a3.147 3.147 0 0 0-2.769-1.247l-.052.006a.21.21 0 0 0-.209.19l-.009.124a.315.315 0 1 1-.63 0c0-.06.058-.195.058-.195a9.153 9.153 0 0 0 .834-3.83 9.156 9.156 0 0 0-2.613-6.419l-.186-.185c-.38-.375-.9-.606-1.475-.606l-.202.012a7.92 7.92 0 0 0-2.17.4l-.053.029a.42.42 0 0 0-.132.64l.075.074a13.2 13.2 0 0 1 1.875 1.688l.055.06c.06.066.081.116.081.196a.263.263 0 0 1-.447.185l-.084-.095a12.696 12.696 0 0 0-2.087-1.823l-.237-.14a.834.834 0 0 0-.704.001l-.145.066a8.124 8.124 0 0 0-1.84 1.639l-.087.162a.417.417 0 0 0 .153.513l.08.047a8.28 8.28 0 0 1 2.186 1.005l.072.039a.263.263 0 0 1-.156.474s-.068 0-.121-.027c-.032-.017-.086-.05-.086-.05a7.796 7.796 0 0 0-2.203-.983l-.239-.036a.63.63 0 0 0-.571.364l-.058.09a7.975 7.975 0 0 0-.64 1.863l-.01.119a.42.42 0 0 0 .417.473l.124-.008c.055-.002.11-.002.166-.002a4.62 4.62 0 0 1 4.594 4.13l.018.142.003.044a.42.42 0 0 1-.42.42l-.163-.013c-.21-.03-.37-.105-.586-.266l-.079-.046a3.17 3.17 0 0 0-.916-.45s-.332-.031-.536-.02h-1.966a.21.21 0 0 0-.21.21.21.21 0 0 0 .074.16l.012.01a3.149 3.149 0 0 1 1.4 2.155v-.005c0 .106.079.195.18.21h.423c.435 0 .846-.087 1.218-.244l.578-.272a3.14 3.14 0 0 1 1.067-.185h5.994c.175 0 .315.142.315.315l.008.139c.003.09.06.166.141.193l.08.015a3.145 3.145 0 0 0 2.824-1.262s.025-.038.055-.094a1.069 1.069 0 0 0-.07-.1zm-5.575-1.26a1.154 1.154 0 1 1 0-2.308 1.154 1.154 0 0 1 0 2.309z"/></g></symbol><symbol viewBox="0 0 34 34" id="footer-logo" xmlns="http://www.w3.org/2000/svg"><path d="M16.999 0C7.61 0 0 7.61 0 16.998 0 26.389 7.611 34 16.999 34 26.389 34 34 26.389 34 16.998 34 7.611 26.389 0 16.999 0zm0 30.938c-7.698 0-13.94-6.24-13.94-13.94C3.06 9.302 9.302 3.062 17 3.062S30.94 9.302 30.94 17c0 7.7-6.242 13.939-13.94 13.939zm11.04-7.328a5.095 5.095 0 0 0-4.483-2.019l-.085.01a.34.34 0 0 0-.338.309l-.014.2a.51.51 0 1 1-1.02 0c0-.098.094-.317.094-.317a14.82 14.82 0 0 0 1.35-6.201c0-4.045-1.613-7.71-4.231-10.391l-.301-.3a3.39 3.39 0 0 0-2.389-.982l-.327.02c-1.231.061-2.394.27-3.513.65l-.086.044a.68.68 0 0 0-.212 1.037l.121.12a21.36 21.36 0 0 1 3.034 2.733l.09.098a.418.418 0 0 1 .131.316.425.425 0 0 1-.724.3L15 9.083a20.55 20.55 0 0 0-3.379-2.952l-.382-.227a1.353 1.353 0 0 0-1.141.002l-.234.108a13.155 13.155 0 0 0-2.98 2.652l-.14.262a.675.675 0 0 0 .248.83l.13.077c1.266.373 2.456.925 3.538 1.628l.117.063a.425.425 0 0 1-.252.767s-.111.002-.197-.044a3.66 3.66 0 0 1-.14-.08 12.62 12.62 0 0 0-3.565-1.591l-.388-.058c-.41 0-.762.24-.925.589l-.093.145A12.91 12.91 0 0 0 4.18 14.27l-.016.191a.68.68 0 0 0 .675.765l.201-.011a7.479 7.479 0 0 1 7.707 6.684l.03.23a.68.68 0 0 1-.675.75l-.264-.021c-.339-.05-.6-.169-.95-.43l-.126-.075a5.135 5.135 0 0 0-1.484-.73s-.538-.05-.868-.03H5.226a.34.34 0 0 0-.34.34c0 .103.047.197.12.258l.02.018a5.098 5.098 0 0 1 2.267 3.488v-.009c0 .172.127.317.291.342h.685c.704 0 1.37-.142 1.972-.397l.936-.44c.538-.194 1.12-.3 1.726-.3l9.706.002a.51.51 0 0 1 .51.509l.013.224a.337.337 0 0 0 .228.313l.128.024a5.092 5.092 0 0 0 4.572-2.044s.042-.06.09-.152c-.04-.07-.112-.16-.112-.16zm-9.026-2.038a1.869 1.869 0 1 1 0-3.738 1.87 1.87 0 1 1 0 3.738z"/></symbol><symbol viewBox="0 0 47 47" id="icon-close" xmlns="http://www.w3.org/2000/svg"><path fill-rule="evenodd" clip-rule="evenodd" d="M21.415 23.42L10.887 33.948l2.006 2.005L23.42 25.425l10.528 10.528 2.005-2.005L25.426 23.42l10.527-10.527-2.005-2.006L23.42 21.415 12.893 10.887l-2.005 2.006L21.415 23.42z"/></symbol><symbol viewBox="0 0 22 22" id="icon-fb" xmlns="http://www.w3.org/2000/svg"><path fill-rule="evenodd" clip-rule="evenodd" d="M11 0C4.925 0 0 4.925 0 11s4.925 11 11 11 11-4.925 11-11S17.075 0 11 0zm1.146 11.483v5.985H9.67v-5.985H8.433V9.421H9.67V8.183c0-1.683.699-2.683 2.684-2.683h1.652v2.063h-1.033c-.773 0-.824.288-.824.826l-.002 1.032h1.87l-.218 2.062h-1.652z"/></symbol><symbol viewBox="0 0 22 22" id="icon-ig" xmlns="http://www.w3.org/2000/svg"><path fill-rule="evenodd" clip-rule="evenodd" d="M11 0C4.925 0 0 4.925 0 11s4.925 11 11 11 11-4.925 11-11S17.075 0 11 0zM8.582 5.169c.625-.029.825-.036 2.419-.036h-.002c1.593 0 1.793.007 2.419.036.624.028 1.05.127 1.425.272.386.15.712.35 1.039.677.326.326.526.653.677 1.04.144.372.243.798.272 1.423.028.626.036.826.036 2.419s-.008 1.793-.036 2.419c-.03.624-.128 1.05-.272 1.423a2.88 2.88 0 0 1-.677 1.04 2.869 2.869 0 0 1-1.039.677c-.373.145-.8.244-1.425.272-.625.029-.825.036-2.418.036-1.593 0-1.793-.007-2.419-.036-.624-.028-1.05-.127-1.424-.272a2.871 2.871 0 0 1-1.039-.677 2.875 2.875 0 0 1-.677-1.04c-.145-.373-.243-.799-.272-1.424-.029-.625-.036-.825-.036-2.418 0-1.593.008-1.793.036-2.42.028-.623.127-1.05.272-1.423.15-.386.351-.713.677-1.04a2.873 2.873 0 0 1 1.04-.676c.373-.145.799-.244 1.424-.272z"/><path fill-rule="evenodd" clip-rule="evenodd" d="M10.474 6.19H11c1.567 0 1.752.006 2.371.034.572.026.883.122 1.09.202.273.107.468.234.673.44.206.204.333.4.44.674.08.206.175.517.202 1.089.028.618.034.804.034 2.37 0 1.565-.006 1.751-.034 2.37-.027.572-.122.882-.203 1.089a1.815 1.815 0 0 1-.439.674c-.205.205-.4.332-.674.438-.206.081-.517.176-1.089.203-.618.028-.804.034-2.37.034-1.567 0-1.753-.006-2.371-.034-.572-.027-.883-.123-1.09-.203a1.816 1.816 0 0 1-.674-.439 1.818 1.818 0 0 1-.44-.674c-.08-.206-.175-.517-.201-1.089-.028-.618-.034-.804-.034-2.37 0-1.567.006-1.752.034-2.37.026-.573.121-.883.202-1.09.106-.274.233-.47.439-.675.205-.205.4-.332.674-.439.207-.08.518-.176 1.09-.202.541-.024.75-.032 1.844-.033v.002zm3.658.975a.704.704 0 1 0 0 1.408.704.704 0 0 0 0-1.409zM7.988 11a3.013 3.013 0 1 1 6.026 0 3.013 3.013 0 0 1-6.026 0z"/><path fill-rule="evenodd" clip-rule="evenodd" d="M11 9.044a1.956 1.956 0 1 1 0 3.912 1.956 1.956 0 0 1 0-3.912z"/></symbol><symbol viewBox="0 0 35 35" id="icon-ok" xmlns="http://www.w3.org/2000/svg"><path fill-rule="evenodd" clip-rule="evenodd" d="M0 17.5C0 7.835 7.835 0 17.5 0S35 7.835 35 17.5 27.165 35 17.5 35 0 27.165 0 17.5zm17.5-.5c1.93 0 3.5-1.57 3.5-3.5S19.43 10 17.5 10 14 11.57 14 13.5s1.57 3.5 3.5 3.5zm3.951 2.646a6.845 6.845 0 0 1-2.329 1.176l2.242 2.733c.46.559.46 1.466 0 2.026-.459.559-1.202.559-1.66 0L17.5 22.895l-2.203 2.686c-.23.279-.53.419-.83.419-.301 0-.602-.14-.831-.42-.459-.559-.459-1.466 0-2.025l2.241-2.733a6.852 6.852 0 0 1-2.328-1.176c-.55-.422-.714-1.306-.368-1.975.345-.67 1.07-.872 1.62-.45 1.641 1.258 3.756 1.259 5.398 0 .55-.422 1.275-.22 1.62.45.346.669.18 1.553-.368 1.975z"/><path fill-rule="evenodd" clip-rule="evenodd" d="M17.5 12c.827 0 1.5.673 1.5 1.5s-.673 1.5-1.5 1.5c-.826 0-1.5-.673-1.5-1.5s.674-1.5 1.5-1.5z"/></symbol><symbol viewBox="0 0 16 10" id="icon-reply" xmlns="http://www.w3.org/2000/svg"><path d="M11.004 0L16 4.982 11.004 10V6.993h-4A6.995 6.995 0 0 1 0 0a3.013 3.013 0 0 0 3.004 3.007h8V0z"/></symbol><symbol viewBox="0 0 21 20" id="icon-search" xmlns="http://www.w3.org/2000/svg"><path fill-rule="evenodd" clip-rule="evenodd" d="M14 8A6 6 0 1 1 2 8a6 6 0 0 1 12 0zm-.88 6.148a8 8 0 1 1 1.294-1.365l.084-.085 5.888 5.888L18.972 20l-5.852-5.852z"/></symbol><symbol viewBox="0 0 22 22" id="icon-tw" xmlns="http://www.w3.org/2000/svg"><path fill-rule="evenodd" clip-rule="evenodd" d="M11 0C4.925 0 0 4.925 0 11s4.925 11 11 11 11-4.925 11-11S17.075 0 11 0zm-.306 9.322l-.023-.381c-.07-.987.538-1.888 1.5-2.237.354-.125.954-.14 1.346-.031.154.046.447.202.654.341l.378.257.415-.132c.23-.07.539-.187.677-.264.13-.07.246-.11.246-.086 0 .132-.284.583-.523.831-.323.35-.23.381.423.148.393-.132.4-.132.323.016-.046.077-.284.35-.538.598-.431.427-.454.473-.454.83 0 .552-.262 1.702-.523 2.331-.485 1.18-1.524 2.4-2.563 3.014-1.462.862-3.408 1.08-5.047.575-.546-.171-1.485-.606-1.485-.684 0-.023.285-.054.63-.062a4.333 4.333 0 0 0 2.063-.575l.415-.248-.477-.163c-.677-.233-1.285-.77-1.438-1.274-.047-.163-.031-.171.4-.171l.446-.008-.377-.179c-.446-.225-.854-.606-1.054-.994-.146-.28-.331-.986-.277-1.04.015-.024.177.023.361.085.531.194.6.147.293-.179-.577-.59-.754-1.468-.477-2.3l.13-.372.508.505C7.686 8.49 8.91 9.096 10.31 9.275l.385.047z"/></symbol><symbol viewBox="0 0 35 35" id="icon-vk" xmlns="http://www.w3.org/2000/svg"><path fill-rule="evenodd" clip-rule="evenodd" d="M17.5 0C7.835 0 0 7.835 0 17.5S7.835 35 17.5 35 35 27.165 35 17.5 27.165 0 17.5 0zm1.298 21.774c-.157.157-.464.188-.464.188h-1.016s-2.242.125-4.217-1.782c-2.153-2.081-4.055-6.21-4.055-6.21s-.11-.27.01-.401c.133-.147.498-.157.498-.157l2.429-.014s.229.034.392.146a.709.709 0 0 1 .212.265s.392.921.912 1.755c1.015 1.627 1.487 1.983 1.831 1.808.503-.254.352-2.3.352-2.3s.01-.742-.253-1.073c-.203-.256-.585-.331-.754-.352-.137-.017.087-.312.379-.444.437-.198 1.208-.21 2.12-.201.712.007.916.048 1.194.11.644.145.624.607.58 1.605-.012.299-.027.646-.027 1.046 0 .09-.003.185-.006.284-.015.511-.032 1.097.33 1.315.187.111.642.016 1.78-1.777.54-.85.944-1.85.944-1.85s.089-.178.226-.254c.14-.078.33-.054.33-.054l2.556-.015s.768-.085.892.237c.13.338-.287 1.126-1.33 2.418-.989 1.222-1.47 1.674-1.43 2.072.03.293.344.557.948 1.076 1.255 1.082 1.591 1.651 1.672 1.788l.016.025c.562.867-.625.934-.625.934l-2.27.03s-.488.09-1.13-.32c-.336-.214-.665-.563-.978-.896-.477-.509-.919-.979-1.296-.868-.633.187-.614 1.452-.614 1.452s.006.27-.138.414z"/></symbol><symbol viewBox="0 0 15 12" id="menu-button" xmlns="http://www.w3.org/2000/svg"><path d="M0 0h15v1.5H0zm0 5h15v1.5H0zm0 5h15v1.5H0z"/></symbol><symbol viewBox="0 0 17 19" id="person-mobile" xmlns="http://www.w3.org/2000/svg"><path d="M8.5 9A4.487 4.487 0 0 1 4 4.5C4 2.004 6.004 0 8.5 0S13 2.004 13 4.5C13 6.995 10.996 9 8.5 9zm0-7.487A2.986 2.986 0 0 0 5.513 4.5 2.986 2.986 0 0 0 8.5 7.487 2.986 2.986 0 0 0 11.487 4.5 2.986 2.986 0 0 0 8.5 1.513zM17 19h-1.665c0-3.542-3.072-6.433-6.835-6.433S1.665 15.457 1.665 19H0c0-4.397 3.828-8 8.5-8 4.672 0 8.5 3.603 8.5 8z"/></symbol><symbol viewBox="0 0 15 16" id="sign-up" xmlns="http://www.w3.org/2000/svg"><path d="M11.25 10.556H12c.414 0 .75.337.75.754a.752.752 0 0 1-.75.753h-.75v.755a.752.752 0 0 1-.75.753.752.752 0 0 1-.75-.753v-.755H9a.752.752 0 0 1-.75-.754c0-.416.336-.753.75-.753h.75v-.754c0-.417.336-.754.75-.754s.75.337.75.754v.754zM5.896 7.44A3.767 3.767 0 0 1 3 3.77C3 1.688 4.679 0 6.75 0c2.071 0 3.75 1.688 3.75 3.77a3.77 3.77 0 0 1-.316 1.516 5.977 5.977 0 0 0-4.288 2.155zm-.08 7.638H.75a.752.752 0 0 1-.75-.754V11.31a3.008 3.008 0 0 1 3-3.016h1.5c.199 0 .39.08.53.22l.1.101a6.01 6.01 0 0 0-.531 1.598l-.41-.411H3c-.828 0-1.5.675-1.5 1.508v2.261h3.436a5.99 5.99 0 0 0 .88 1.508zm.934-9.047A2.256 2.256 0 0 0 9 3.77a2.256 2.256 0 0 0-2.25-2.262A2.256 2.256 0 0 0 4.5 3.77a2.256 2.256 0 0 0 2.25 2.262zm3.75 9.801c-2.485 0-4.5-2.025-4.5-4.524 0-2.498 2.015-4.523 4.5-4.523S15 8.81 15 11.31c0 2.498-2.015 4.523-4.5 4.523zm0-1.508c1.657 0 3-1.35 3-3.015a3.008 3.008 0 0 0-3-3.016c-1.657 0-3 1.35-3 3.015a3.008 3.008 0 0 0 3 3.016z"/></symbol></svg>