<svg width="35" height="35" viewBox="0 0 35 35" fill="none" xmlns="http://www.w3.org/2000/svg">
<mask id="mask0" mask-type="alpha" maskUnits="userSpaceOnUse" x="0" y="0" width="35" height="35">
<circle cx="17.5" cy="17.5" r="17.5" fill="#C4C4C4"/>
</mask>
<g mask="url(#mask0)">
<circle cx="17.5" cy="17.5" r="18.5" fill="#DCDCDC"/>
<path d="M17.4993 7C11.701 7 7 11.7008 7 17.4991C7 23.2989 11.701 28 17.4993 28C23.299 28 28 23.2989 28 17.4991C28 11.7008 23.299 7 17.4993 7ZM17.4993 26.1087C12.7449 26.1087 8.88975 22.2548 8.88975 17.4991C8.88975 12.7448 12.7449 8.89035 17.4993 8.89035C22.2543 8.89035 26.1096 12.7448 26.1096 17.4991C26.1096 22.2548 22.2543 26.1087 17.4993 26.1087ZM24.3177 21.5828C23.7429 20.8197 22.8289 20.3255 21.799 20.3255C21.7155 20.3255 21.6322 20.3291 21.5495 20.3358L21.4969 20.3421C21.3881 20.3421 21.298 20.4256 21.288 20.5324L21.2793 20.656C21.2793 20.8303 21.1386 20.9716 20.9643 20.9716C20.7896 20.9716 20.6491 20.8303 20.6491 20.656C20.6491 20.596 20.7074 20.4606 20.7074 20.4606C21.2431 19.2938 21.5414 17.9975 21.5414 16.6302C21.5414 14.1321 20.5449 11.8682 18.9279 10.2121L18.742 10.0266C18.3627 9.65222 17.8419 9.42053 17.2668 9.42053L17.0646 9.43303C16.3041 9.47072 15.5862 9.59969 14.8949 9.83395L14.8419 9.86168C14.707 9.93133 14.6139 10.0722 14.6139 10.2346C14.6139 10.3365 14.6503 10.4288 14.7105 10.5018L14.7855 10.576C15.4632 11.0776 16.0903 11.6436 16.6596 12.2643L16.715 12.3249C16.7744 12.3904 16.7961 12.4404 16.7961 12.5199C16.7961 12.664 16.6785 12.7819 16.5341 12.7819C16.4618 12.7819 16.3957 12.753 16.3487 12.7054L16.2647 12.6101C15.6387 11.9293 14.9389 11.3174 14.1777 10.787L13.9415 10.6468C13.8348 10.5973 13.7154 10.5702 13.5901 10.5702C13.464 10.5702 13.3443 10.5979 13.2366 10.648L13.0923 10.7144C12.3982 11.1645 11.7769 11.718 11.2522 12.3527L11.1652 12.5145C11.143 12.5652 11.132 12.6206 11.132 12.6788C11.132 12.8241 11.2052 12.952 11.3183 13.0273L11.3988 13.0747C12.1808 13.3047 12.9156 13.6458 13.584 14.0798L13.6564 14.119C13.7211 14.167 13.7625 14.2433 13.7625 14.3301C13.7625 14.4748 13.6452 14.5927 13.5005 14.5927C13.5005 14.5927 13.432 14.5939 13.3789 14.5655C13.3468 14.549 13.2925 14.5167 13.2925 14.5167C12.6213 14.082 11.8805 13.7471 11.0904 13.5333L10.8513 13.4974C10.598 13.4974 10.3802 13.6464 10.2799 13.8613L10.2224 13.9508C9.93593 14.536 9.71886 15.1604 9.58107 15.8144L9.5712 15.9328C9.56932 15.9506 9.56811 15.9687 9.56811 15.9859C9.56811 16.2177 9.75654 16.4056 9.98786 16.4056L10.1126 16.398C10.1682 16.3963 10.2236 16.3957 10.2793 16.3957C12.6653 16.3957 14.6293 18.2045 14.873 20.5263L14.8914 20.6683C14.8931 20.6831 14.8937 20.6978 14.8937 20.7121C14.8937 20.944 14.7058 21.1317 14.4743 21.1317L14.3112 21.1188C14.1017 21.0883 13.9409 21.0144 13.7248 20.8531L13.6465 20.8067C13.3708 20.6107 13.0618 20.457 12.7297 20.3563C12.7297 20.3563 12.3977 20.3255 12.194 20.3373H10.2281C10.1123 20.3373 10.018 20.4317 10.018 20.5471C10.018 20.6113 10.0469 20.6689 10.0922 20.7066L10.1045 20.7178C10.8396 21.1941 11.3635 21.9695 11.5044 22.8721V22.8671C11.5044 22.9733 11.5829 23.0624 11.6843 23.0779C11.6843 23.0779 11.9895 23.0779 12.1073 23.0779C12.5424 23.0779 12.9533 22.9901 13.325 22.8326L13.9032 22.5609C14.2358 22.4414 14.5951 22.376 14.9696 22.376L20.9643 22.3766C21.1386 22.3766 21.2793 22.518 21.2793 22.6912L21.2874 22.83C21.2899 22.9202 21.3475 22.9955 21.4283 23.0228L21.5076 23.0379C21.6031 23.0469 21.7009 23.0508 21.799 23.0508C22.8368 23.0508 23.7575 22.5496 24.3314 21.7754C24.3314 21.7754 24.3572 21.7383 24.3872 21.6816C24.3617 21.6382 24.3177 21.5828 24.3177 21.5828ZM18.7435 20.3238C18.1057 20.3238 17.5887 19.8075 17.5887 19.1696C17.5887 18.5319 18.1057 18.0149 18.7435 18.0149C19.382 18.0149 19.8988 18.5319 19.8988 19.1696C19.8988 19.8075 19.382 20.3238 18.7435 20.3238Z" fill="#C1C1C1"/>
</g>
</svg>
