<svg width="34" height="34" viewBox="0 0 34 34" fill="none" xmlns="http://www.w3.org/2000/svg">
<path d="M16.9988 0C7.61109 0 0 7.61078 0 16.9985C0 26.3887 7.61109 34 16.9988 34C26.3888 34 34 26.3887 34 16.9985C34 7.61078 26.3888 0 16.9988 0ZM16.9988 30.938C9.30129 30.938 3.0596 24.6982 3.0596 16.9985C3.0596 9.30117 9.30129 3.06057 16.9988 3.06057C24.6974 3.06057 30.9393 9.30117 30.9393 16.9985C30.9393 24.6982 24.6974 30.938 16.9988 30.938ZM28.0382 23.6102C27.1075 22.3747 25.6278 21.5747 23.9603 21.5747C23.8251 21.5747 23.6903 21.5804 23.5564 21.5913L23.4712 21.6015C23.295 21.6015 23.1492 21.7367 23.133 21.9095L23.1188 22.1098C23.1188 22.3919 22.8911 22.6207 22.6088 22.6207C22.3261 22.6207 22.0986 22.3919 22.0986 22.1098C22.0986 22.0125 22.193 21.7934 22.193 21.7934C23.0603 19.9042 23.5432 17.8055 23.5432 15.5917C23.5432 11.5472 21.9298 7.88179 19.3119 5.20053L19.0108 4.90021C18.3968 4.29407 17.5536 3.91895 16.6224 3.91895L16.2951 3.9392C15.0638 4.00022 13.9014 4.20902 12.7822 4.58829L12.6963 4.6332C12.478 4.74596 12.3272 4.97403 12.3272 5.2369C12.3272 5.402 12.3863 5.55137 12.4836 5.66961L12.6051 5.78969C13.7024 6.60182 14.7177 7.51814 15.6393 8.5231L15.7291 8.62121C15.8252 8.72723 15.8604 8.80826 15.8604 8.93703C15.8604 9.17036 15.6699 9.36121 15.4362 9.36121C15.3191 9.36121 15.2122 9.31435 15.136 9.23733L14.9999 9.08298C13.9865 7.98079 12.8535 6.99 11.621 6.13127L11.2387 5.90429C11.0659 5.82423 10.8726 5.7803 10.6696 5.7803C10.4655 5.7803 10.2717 5.82521 10.0974 5.90624L9.86372 6.01375C8.73994 6.74253 7.7341 7.63871 6.88459 8.66622L6.74364 8.92824C6.70776 9.01025 6.68982 9.10007 6.68982 9.19427C6.68982 9.42955 6.80844 9.63652 6.99149 9.75855L7.12194 9.83529C8.388 10.2076 9.57767 10.7598 10.6598 11.4626L10.777 11.526C10.8819 11.6038 10.9488 11.7273 10.9488 11.8679C10.9488 12.1021 10.7589 12.2929 10.5245 12.2929C10.5245 12.2929 10.4137 12.295 10.3277 12.249C10.2757 12.2221 10.1878 12.1699 10.1878 12.1699C9.10116 11.4661 7.90182 10.9238 6.62258 10.5777L6.23538 10.5195C5.82535 10.5195 5.47267 10.7608 5.31037 11.1087L5.21725 11.2537C4.75341 12.2011 4.40196 13.2121 4.17888 14.2709L4.16289 14.4625C4.15985 14.4914 4.15789 14.5207 4.15789 14.5486C4.15789 14.9239 4.46298 15.228 4.83749 15.228L5.03946 15.2158C5.12939 15.213 5.21921 15.212 5.30939 15.212C9.17243 15.212 12.3522 18.1407 12.7467 21.8998L12.7765 22.1296C12.7793 22.1536 12.7803 22.1774 12.7803 22.2005C12.7803 22.5759 12.4761 22.8799 12.1013 22.8799L11.8371 22.8589C11.498 22.8096 11.2377 22.69 10.8878 22.4289L10.761 22.3536C10.3147 22.0364 9.81432 21.7875 9.27659 21.6245C9.27659 21.6245 8.73916 21.5747 8.40928 21.5937H5.22641C5.03897 21.5937 4.8863 21.7465 4.8863 21.9334C4.8863 22.0373 4.93304 22.1306 5.00638 22.1916L5.02628 22.2098C6.21646 22.981 7.06471 24.2364 7.29283 25.6976V25.6895C7.29283 25.8615 7.41994 26.0058 7.58405 26.0308C7.58405 26.0308 8.07823 26.0308 8.2689 26.0308C8.97346 26.0308 9.63869 25.8888 10.2405 25.6337L11.1767 25.1939C11.7151 25.0004 12.2969 24.8945 12.9032 24.8945L22.6088 24.8955C22.8911 24.8955 23.1188 25.1244 23.1188 25.4047L23.132 25.6295C23.1361 25.7755 23.2292 25.8976 23.3601 25.9417L23.4885 25.9661C23.643 25.9806 23.8014 25.9871 23.9603 25.9871C25.6406 25.9871 27.1312 25.1756 28.0603 23.9221C28.0603 23.9221 28.1021 23.8621 28.1507 23.7703C28.1094 23.7 28.0382 23.6102 28.0382 23.6102ZM19.0132 21.5719C17.9807 21.5719 17.1437 20.736 17.1437 19.7032C17.1437 18.6707 17.9807 17.8337 19.0132 17.8337C20.0471 17.8337 20.8838 18.6707 20.8838 19.7032C20.8838 20.736 20.0471 21.5719 19.0132 21.5719Z" fill="#8D8D8D"/>
</svg>
