<svg width="35" height="35" viewBox="0 0 35 35" fill="none" xmlns="http://www.w3.org/2000/svg">
<path fill-rule="evenodd" clip-rule="evenodd" d="M17.5 0C7.83502 0 0 7.83502 0 17.5C0 27.165 7.83502 35 17.5 35C27.165 35 35 27.165 35 17.5C35 7.83502 27.165 0 17.5 0ZM18.7977 21.7741C18.6405 21.9307 18.3337 21.9624 18.3337 21.9624H17.3176C17.3176 21.9624 15.076 22.0874 13.1013 20.18C10.9478 18.099 9.04618 13.9703 9.04618 13.9703C9.04618 13.9703 8.93642 13.6994 9.05532 13.569C9.18919 13.4217 9.55421 13.4124 9.55421 13.4124L11.9829 13.3978C11.9829 13.3978 12.2116 13.4325 12.3754 13.5444C12.5109 13.6369 12.5866 13.809 12.5866 13.809C12.5866 13.809 12.979 14.7303 13.4987 15.5636C14.5139 17.1909 14.9862 17.5466 15.3304 17.3722C15.8326 17.1184 15.6821 15.0721 15.6821 15.0721C15.6821 15.0721 15.6913 14.3298 15.4294 13.9988C15.2265 13.7427 14.844 13.6678 14.6752 13.647C14.538 13.63 14.7625 13.3353 15.0536 13.2033C15.4909 13.005 16.2625 12.9934 17.1746 13.0019C17.8855 13.0089 18.0901 13.0498 18.3678 13.1123C19.0123 13.2566 18.9922 13.7192 18.9488 14.7174C18.9358 15.016 18.9207 15.3625 18.9207 15.7627C18.9207 15.8526 18.9179 15.9485 18.915 16.0471C18.8999 16.5585 18.8827 17.1442 19.2458 17.3622C19.4321 17.4733 19.8869 17.3784 21.0252 15.5852C21.5648 14.7349 21.9689 13.7357 21.9689 13.7357C21.9689 13.7357 22.0579 13.5575 22.1951 13.4811C22.3356 13.4032 22.5251 13.4271 22.5251 13.4271L25.0811 13.4124C25.0811 13.4124 25.8494 13.3268 25.9733 13.6493C26.1038 13.9865 25.6864 14.775 24.6421 16.0667C23.6543 17.2887 23.1722 17.7408 23.2132 18.1391C23.2434 18.432 23.5569 18.6958 24.1607 19.2155C25.416 20.2971 25.7525 20.8661 25.8333 21.0029C25.84 21.0142 25.845 21.0226 25.8485 21.028C26.4114 21.8945 25.2241 21.9624 25.2241 21.9624L22.9534 21.9917C22.9534 21.9917 22.4661 22.0812 21.8242 21.6723C21.488 21.4582 21.1594 21.1087 20.8464 20.7757C20.3685 20.2672 19.927 19.7974 19.5501 19.9084C18.9174 20.0951 18.9365 21.3598 18.9365 21.3598C18.9365 21.3598 18.9415 21.6306 18.7977 21.7741Z" fill="#C4C4C4"/>
</svg>
