<svg width="22" height="22" viewBox="0 0 22 22" fill="none" xmlns="http://www.w3.org/2000/svg">
<path fill-rule="evenodd" clip-rule="evenodd" d="M11 0C4.92487 0 0 4.92487 0 11C0 17.0751 4.92487 22 11 22C17.0751 22 22 17.0751 22 11C22 4.92487 17.0751 0 11 0ZM8.58153 5.16874C9.20732 5.14026 9.40728 5.13329 11.0006 5.13329H10.9987C12.5925 5.13329 12.7918 5.14026 13.4176 5.16874C14.0421 5.19734 14.4687 5.29622 14.8427 5.4413C15.2289 5.59102 15.5552 5.79147 15.8816 6.1178C16.2079 6.44389 16.4084 6.77121 16.5587 7.15707C16.7029 7.5301 16.8019 7.95641 16.8313 8.58097C16.8594 9.20676 16.8667 9.40671 16.8667 11C16.8667 12.5933 16.8594 12.7928 16.8313 13.4186C16.8019 14.0429 16.7029 14.4693 16.5587 14.8425C16.4084 15.2282 16.2079 15.5555 15.8816 15.8816C15.5556 16.208 15.2288 16.4089 14.843 16.5587C14.4698 16.7038 14.043 16.8027 13.4184 16.8313C12.7926 16.8598 12.5933 16.8667 10.9998 16.8667C9.40666 16.8667 9.20683 16.8598 8.58105 16.8313C7.9566 16.8027 7.53017 16.7038 7.1569 16.5587C6.77128 16.4089 6.44397 16.208 6.118 15.8816C5.79178 15.5555 5.59134 15.2282 5.44137 14.8424C5.29641 14.4693 5.19753 14.043 5.16881 13.4185C5.14045 12.7927 5.13336 12.5933 5.13336 11C5.13336 9.40671 5.1407 9.20663 5.16869 8.58085C5.1968 7.95653 5.2958 7.53009 5.44125 7.15695C5.59158 6.77121 5.79203 6.44389 6.11836 6.1178C6.44446 5.79159 6.77177 5.59114 7.15763 5.4413C7.53066 5.29622 7.95697 5.19734 8.58153 5.16874Z" fill="#4BA82E"/>
<path fill-rule="evenodd" clip-rule="evenodd" d="M10.4741 6.19054C10.5763 6.19038 10.6862 6.19043 10.8049 6.19048L11.0004 6.19054C12.5668 6.19054 12.7525 6.19616 13.3711 6.22427C13.9431 6.25043 14.2535 6.34601 14.4603 6.42631C14.7341 6.53264 14.9293 6.65975 15.1345 6.86509C15.3398 7.07043 15.4669 7.26598 15.5735 7.53976C15.6538 7.74632 15.7495 8.05677 15.7756 8.62878C15.8037 9.24723 15.8098 9.43301 15.8098 10.9987C15.8098 12.5644 15.8037 12.7502 15.7756 13.3686C15.7494 13.9406 15.6538 14.2511 15.5735 14.4576C15.4672 14.7314 15.3398 14.9263 15.1345 15.1316C14.9292 15.3369 14.7342 15.464 14.4603 15.5703C14.2538 15.651 13.9431 15.7463 13.3711 15.7725C12.7526 15.8006 12.5668 15.8067 11.0004 15.8067C9.43387 15.8067 9.24822 15.8006 8.62976 15.7725C8.05776 15.7461 7.74731 15.6505 7.54039 15.5702C7.26661 15.4639 7.07105 15.3368 6.86571 15.1314C6.66038 14.9261 6.53327 14.731 6.42669 14.4571C6.34639 14.2506 6.25069 13.9401 6.22465 13.3681C6.19654 12.7497 6.19092 12.5639 6.19092 10.9972C6.19092 9.43056 6.19654 9.24576 6.22465 8.62731C6.25081 8.0553 6.34639 7.74485 6.42669 7.53805C6.53302 7.26427 6.66038 7.06871 6.86571 6.86338C7.07105 6.65804 7.26661 6.53093 7.54039 6.42435C7.74719 6.34368 8.05776 6.24835 8.62976 6.22207C9.17097 6.19763 9.38071 6.19029 10.4741 6.18907V6.19054ZM14.1323 7.16471C13.7437 7.16471 13.4283 7.47968 13.4283 7.86848C13.4283 8.25715 13.7437 8.57248 14.1323 8.57248C14.521 8.57248 14.8363 8.25715 14.8363 7.86848C14.8363 7.47981 14.521 7.16447 14.1323 7.16447V7.16471ZM7.98763 11.0001C7.98763 9.3363 9.33655 7.98735 11.0003 7.98728C12.6641 7.98728 14.0128 9.33626 14.0128 11.0001C14.0128 12.6639 12.6643 14.0123 11.0004 14.0123C9.33661 14.0123 7.98763 12.6639 7.98763 11.0001Z" fill="#4BA82E"/>
<path fill-rule="evenodd" clip-rule="evenodd" d="M11.0005 9.04445C12.0805 9.04445 12.9561 9.91994 12.9561 11C12.9561 12.08 12.0805 12.9556 11.0005 12.9556C9.92041 12.9556 9.04492 12.08 9.04492 11C9.04492 9.91994 9.92041 9.04445 11.0005 9.04445V9.04445Z" fill="#4BA82E"/>
</svg>
