<svg width="35" height="35" viewBox="0 0 35 35" fill="none" xmlns="http://www.w3.org/2000/svg">
<path fill-rule="evenodd" clip-rule="evenodd" d="M0 17.5C0 7.83502 7.83502 0 17.5 0C27.165 0 35 7.83502 35 17.5C35 27.165 27.165 35 17.5 35C7.83502 35 0 27.165 0 17.5ZM17.5 17C19.4306 17 21 15.4303 21 13.5005C21 11.5701 19.4306 10 17.5 10C15.5698 10 14 11.5701 14 13.5005C14 15.4303 15.5698 17 17.5 17ZM21.451 19.646C20.7259 20.2012 19.9387 20.595 19.1225 20.8217L21.3641 23.5551C21.8234 24.1138 21.8234 25.0212 21.3641 25.5805C20.9054 26.1398 20.1619 26.1398 19.7036 25.5805L17.4996 22.8945L15.2975 25.5805C15.0679 25.8599 14.767 25.9997 14.4662 25.9997C14.1658 25.9997 13.8654 25.8599 13.6358 25.5805C13.177 25.0212 13.177 24.1144 13.6353 23.5551L15.8772 20.8217C15.0609 20.595 14.2737 20.2007 13.5487 19.646C12.9999 19.2242 12.8351 18.3405 13.1808 17.6709C13.5256 17.0004 14.2507 16.7986 14.8004 17.2204C16.442 18.4794 18.5567 18.4797 20.1993 17.2204C20.749 16.7986 21.4738 17.0004 21.8193 17.6709C22.165 18.3399 21.9997 19.2242 21.451 19.646Z" fill="#C4C4C4"/>
<path fill-rule="evenodd" clip-rule="evenodd" d="M17.5 12C18.3272 12 19 12.6728 19 13.5001C19 14.3268 18.3272 15 17.5 15C16.6735 15 16 14.3268 16 13.5001C16 12.6728 16.6735 12 17.5 12Z" fill="#C4C4C4"/>
</svg>
