<svg width="17" height="19" viewBox="0 0 17 19" fill="none" xmlns="http://www.w3.org/2000/svg">
<path d="M8.5 8.99976C6.00437 8.99976 4 6.99539 4 4.49976C4 2.00412 6.00437 -0.000244141 8.5 -0.000244141C10.9956 -0.000244141 13 2.00412 13 4.49976C13 6.99539 10.9956 8.99976 8.5 8.99976ZM8.5 1.51286C6.84934 1.51286 5.5131 2.8491 5.5131 4.49976C5.5131 6.15041 6.84934 7.48666 8.5 7.48666C10.1507 7.48666 11.4869 6.15041 11.4869 4.49976C11.4869 2.8491 10.1507 1.51286 8.5 1.51286Z" fill="white"/>
<path d="M17 18.9998H15.3346C15.3346 15.4578 12.2634 12.5672 8.5 12.5672C4.73664 12.5672 1.66539 15.4578 1.66539 18.9998H0C0 14.6028 3.82824 10.9998 8.5 10.9998C13.1718 10.9998 17 14.6028 17 18.9998Z" fill="white"/>
</svg>
