<svg width="15" height="16" viewBox="0 0 15 16" fill="none" xmlns="http://www.w3.org/2000/svg">
<path d="M11.25 10.5556H12C12.4142 10.5556 12.75 10.8931 12.75 11.3095C12.75 11.7259 12.4142 12.0635 12 12.0635H11.25V12.8175C11.25 13.2339 10.9142 13.5714 10.5 13.5714C10.0858 13.5714 9.75 13.2339 9.75 12.8175V12.0635H9C8.58579 12.0635 8.25 11.7259 8.25 11.3095C8.25 10.8931 8.58579 10.5556 9 10.5556H9.75V9.80159C9.75 9.38518 10.0858 9.04762 10.5 9.04762C10.9142 9.04762 11.25 9.38518 11.25 9.80159V10.5556ZM5.89597 7.44148C4.23639 7.0529 3 5.55652 3 3.76984C3 1.68782 4.67893 0 6.75 0C8.82107 0 10.5 1.68782 10.5 3.76984C10.5 4.30917 10.3873 4.82204 10.1844 5.28598C8.46304 5.37566 6.93359 6.19466 5.89597 7.44148ZM5.81597 15.0794H0.75C0.335786 15.0794 0 14.7418 0 14.3254V11.3095C0 9.6439 1.34315 8.29365 3 8.29365H4.5C4.69891 8.29365 4.88968 8.37309 5.03033 8.51448L5.13044 8.61512C4.88297 9.11256 4.70188 9.64919 4.59886 10.2133L4.18934 9.80159H3C2.17157 9.80159 1.5 10.4767 1.5 11.3095V13.5714H4.93614C5.15644 14.1186 5.45429 14.6258 5.81597 15.0794ZM6.75 6.03175C7.99264 6.03175 9 5.01906 9 3.76984C9 2.52063 7.99264 1.50794 6.75 1.50794C5.50736 1.50794 4.5 2.52063 4.5 3.76984C4.5 5.01906 5.50736 6.03175 6.75 6.03175ZM10.5 15.8333C8.01472 15.8333 6 13.808 6 11.3095C6 8.81109 8.01472 6.78571 10.5 6.78571C12.9853 6.78571 15 8.81109 15 11.3095C15 13.808 12.9853 15.8333 10.5 15.8333ZM10.5 14.3254C12.1569 14.3254 13.5 12.9751 13.5 11.3095C13.5 9.6439 12.1569 8.29365 10.5 8.29365C8.84315 8.29365 7.5 9.6439 7.5 11.3095C7.5 12.9751 8.84315 14.3254 10.5 14.3254Z" fill="#4BA82E"/>
</svg>
