<svg width="758" height="528" viewBox="0 0 758 528" fill="none" xmlns="http://www.w3.org/2000/svg"><path d="M378.974 0C169.683 0 0 169.676 0 378.966 0 588.313 169.683 758 378.974 758 588.315 758 758 588.313 758 378.966 758 169.676 588.315 0 378.974 0zm0 689.735c-171.61 0-310.763-139.11-310.763-310.769 0-171.605 139.153-310.733 310.763-310.733 171.633 0 310.791 139.128 310.791 310.733 0 171.659-139.158 310.769-310.791 310.769zm246.112-163.367c-20.748-27.543-53.737-45.379-90.912-45.379-3.014 0-6.02.128-9.006.37l-1.898.228c-3.928 0-7.18 3.015-7.541 6.867l-.316 4.464c0 6.29-5.075 11.392-11.37 11.392-6.303 0-11.374-5.102-11.374-11.392 0-2.168 2.105-7.054 2.105-7.054 19.335-42.117 30.1-88.907 30.1-138.261 0-90.169-35.968-171.885-94.333-231.662l-6.712-6.695c-13.688-13.513-32.486-21.876-53.248-21.876l-7.296.451c-27.452 1.36-53.365 6.015-78.318 14.471l-1.913 1.001c-4.867 2.514-8.23 7.599-8.23 13.459 0 3.681 1.317 7.011 3.487 9.647l2.708 2.677c24.463 18.106 47.099 38.534 67.645 60.939l2.002 2.187c2.142 2.364 2.928 4.17 2.928 7.041 0 5.202-4.247 9.457-9.457 9.457-2.612 0-4.995-1.045-6.693-2.762l-3.034-3.441a458.202 458.202 0 0 0-75.33-65.806l-8.524-5.06c-3.852-1.785-8.161-2.764-12.686-2.764a30.176 30.176 0 0 0-12.757 2.807l-5.21 2.397a293.28 293.28 0 0 0-66.417 59.135l-3.143 5.841c-.799 1.829-1.199 3.831-1.199 5.931 0 5.246 2.644 9.86 6.725 12.58l2.908 1.711a300.378 300.378 0 0 1 78.873 36.28l2.614 1.412a9.436 9.436 0 0 1 3.83 7.622c0 5.222-4.233 9.477-9.459 9.477 0 0-2.47.045-4.387-.98-1.16-.598-3.119-1.763-3.119-1.763-24.227-15.69-50.965-27.78-79.484-35.496l-8.633-1.297c-9.141 0-17.004 5.378-20.622 13.135l-2.076 3.232a287.802 287.802 0 0 0-23.15 67.266l-.356 4.273a18.523 18.523 0 0 0-.111 1.917c0 8.369 6.801 15.149 15.151 15.149l4.502-.272c2.005-.064 4.008-.085 6.018-.085 86.123 0 157.014 65.292 165.809 149.097l.664 5.124c.063.535.084 1.066.084 1.58 0 8.371-6.782 15.148-15.137 15.148l-5.89-.468c-7.561-1.101-13.363-3.767-21.164-9.587l-2.827-1.678a114.426 114.426 0 0 0-33.094-16.256s-11.981-1.11-19.335-.686h-70.96c-4.179 0-7.582 3.406-7.582 7.572a7.475 7.475 0 0 0 2.677 5.757l.443.407c26.534 17.192 45.445 45.179 50.531 77.757v-.181c0 3.835 2.834 7.052 6.493 7.609h15.268c15.707 0 30.538-3.167 43.954-8.854l20.872-9.805c12.004-4.314 24.973-6.673 38.492-6.673l216.377.022c6.295 0 11.37 5.101 11.37 11.352l.294 5.01c.091 3.256 2.168 5.977 5.086 6.961l2.863.544c3.445.324 6.975.468 10.518.468 37.46 0 70.693-18.091 91.406-46.037 0 0 .932-1.339 2.016-3.384-.921-1.568-2.51-3.57-2.51-3.57zm-201.203-45.443c-23.018 0-41.68-18.635-41.68-41.66 0-23.018 18.662-41.679 41.68-41.679 23.049 0 41.704 18.661 41.704 41.679 0 23.025-18.655 41.66-41.704 41.66z" fill="#E4E4E4"/></svg>